<svg xmlns="http://www.w3.org/2000/svg" xmlns:xlink="http://www.w3.org/1999/xlink" width="1920" zoomAndPan="magnify" viewBox="0 0 1440 809.999993" height="1080" preserveAspectRatio="xMidYMid meet" version="1.0"><defs><clipPath id="2775f66377"><path d="M 565.898438 243 L 874.148438 243 L 874.148438 567 L 565.898438 567 Z M 565.898438 243 " clip-rule="nonzero"/></clipPath></defs><path fill="#ffffff" d="M 720.007812 323.191406 C 685.960938 323.191406 658.363281 352.179688 658.363281 387.9375 C 658.363281 423.699219 685.960938 452.6875 720.007812 452.6875 C 754.054688 452.6875 781.652344 423.699219 781.652344 387.9375 C 781.652344 352.179688 754.054688 323.191406 720.007812 323.191406 " fill-opacity="1" fill-rule="nonzero"/><g clip-path="url(#2775f66377)"><path fill="#ffffff" d="M 822.386719 516.746094 C 808.734375 483.421875 780.074219 462.574219 719.914062 462.574219 C 659.835938 462.574219 631.171875 483.367188 617.5 516.617188 C 589.671875 488.410156 572.359375 448.828125 572.359375 405 C 572.359375 319.347656 638.464844 249.914062 720.007812 249.914062 C 801.554688 249.914062 867.660156 319.347656 867.660156 405 C 867.660156 448.898438 850.292969 488.53125 822.386719 516.746094 Z M 720.007812 243.128906 C 634.894531 243.128906 565.898438 315.601562 565.898438 405 C 565.898438 451.757812 584.773438 493.886719 614.960938 523.4375 C 642.480469 550.382812 679.410156 566.871094 720.007812 566.871094 C 760.535156 566.871094 797.40625 550.4375 824.917969 523.570312 C 855.183594 494.015625 874.121094 451.832031 874.121094 405 C 874.121094 315.601562 805.117188 243.128906 720.007812 243.128906 " fill-opacity="1" fill-rule="nonzero"/></g><path fill="#ffffff" d="M 737.003906 259.339844 C 733.664062 259.335938 730.324219 259.441406 726.988281 259.65625 C 723.652344 259.875 720.328125 260.199219 717.015625 260.636719 C 713.699219 261.074219 710.40625 261.617188 707.128906 262.273438 C 703.847656 262.925781 700.597656 263.6875 697.371094 264.558594 C 694.140625 265.425781 690.945312 266.402344 687.785156 267.480469 C 684.621094 268.5625 681.496094 269.746094 678.414062 271.035156 C 675.328125 272.320312 672.289062 273.707031 669.296875 275.195312 C 666.304688 276.683594 663.363281 278.269531 660.472656 279.949219 C 657.585938 281.632812 654.757812 283.40625 651.984375 285.277344 C 649.214844 287.148438 646.507812 289.105469 643.867188 291.152344 C 641.226562 293.203125 638.65625 295.335938 636.15625 297.550781 C 633.65625 299.769531 631.230469 302.070312 628.882812 304.445312 C 626.53125 306.824219 624.265625 309.277344 622.078125 311.808594 C 619.894531 314.335938 617.792969 316.933594 615.777344 319.597656 C 613.765625 322.265625 611.839844 324.996094 610.003906 327.792969 C 608.171875 330.585938 606.433594 333.4375 604.785156 336.347656 C 603.140625 339.257812 601.59375 342.214844 600.144531 345.226562 C 598.691406 348.238281 597.34375 351.296875 596.097656 354.394531 C 594.847656 357.496094 593.703125 360.636719 592.664062 363.8125 C 591.625 366.988281 590.691406 370.195312 589.863281 373.433594 C 589.03125 376.671875 588.3125 379.933594 587.699219 383.21875 C 587.085938 386.503906 586.582031 389.808594 586.1875 393.125 C 585.792969 396.445312 585.511719 399.773438 585.335938 403.113281 C 585.160156 406.449219 585.097656 409.789062 585.144531 413.132812 C 585.191406 416.472656 585.347656 419.808594 585.613281 423.140625 C 585.882812 426.472656 586.257812 429.792969 586.746094 433.101562 C 587.230469 436.40625 587.824219 439.695312 588.53125 442.960938 C 589.234375 446.230469 590.042969 449.46875 590.960938 452.683594 C 591.878906 455.898438 592.902344 459.078125 594.03125 462.222656 C 595.160156 465.371094 596.390625 468.476562 597.722656 471.539062 C 599.058594 474.605469 600.488281 477.621094 602.023438 480.59375 C 603.554688 483.5625 605.183594 486.480469 606.910156 489.339844 L 585.496094 553.570312 C 585.40625 553.839844 585.332031 554.113281 585.277344 554.394531 C 585.21875 554.675781 585.175781 554.957031 585.152344 555.242188 C 585.128906 555.527344 585.121094 555.808594 585.132812 556.09375 C 585.140625 556.382812 585.167969 556.664062 585.210938 556.945312 C 585.253906 557.230469 585.3125 557.507812 585.390625 557.78125 C 585.464844 558.058594 585.558594 558.328125 585.667969 558.59375 C 585.773438 558.855469 585.898438 559.113281 586.035156 559.363281 C 586.175781 559.613281 586.328125 559.851562 586.496094 560.085938 C 586.660156 560.316406 586.839844 560.539062 587.035156 560.746094 C 587.226562 560.957031 587.433594 561.15625 587.648438 561.34375 C 587.867188 561.527344 588.09375 561.699219 588.328125 561.859375 C 588.566406 562.019531 588.8125 562.164062 589.066406 562.292969 C 589.320312 562.425781 589.582031 562.539062 589.847656 562.636719 C 590.117188 562.738281 590.390625 562.820312 590.667969 562.886719 C 590.945312 562.953125 591.226562 563.003906 591.507812 563.039062 C 591.792969 563.070312 592.078125 563.089844 592.363281 563.089844 C 593.144531 563.089844 593.90625 562.964844 594.648438 562.714844 L 658.878906 541.308594 C 661.375 542.808594 663.914062 544.234375 666.492188 545.589844 C 669.070312 546.941406 671.6875 548.222656 674.339844 549.425781 C 676.992188 550.628906 679.679688 551.753906 682.394531 552.804688 C 685.113281 553.851562 687.859375 554.820312 690.632812 555.710938 C 693.40625 556.601562 696.203125 557.414062 699.023438 558.144531 C 701.84375 558.871094 704.683594 559.519531 707.539062 560.085938 C 710.398438 560.652344 713.269531 561.136719 716.152344 561.539062 C 719.039062 561.9375 721.933594 562.257812 724.835938 562.492188 C 727.742188 562.726562 730.648438 562.875 733.558594 562.945312 C 736.472656 563.011719 739.382812 562.996094 742.296875 562.894531 C 745.207031 562.792969 748.113281 562.609375 751.015625 562.339844 C 753.914062 562.074219 756.804688 561.722656 759.683594 561.289062 C 762.566406 560.855469 765.429688 560.335938 768.28125 559.738281 C 771.132812 559.140625 773.964844 558.457031 776.777344 557.695312 C 779.585938 556.933594 782.375 556.09375 785.136719 555.171875 C 787.902344 554.246094 790.636719 553.246094 793.339844 552.167969 C 796.046875 551.085938 798.71875 549.929688 801.355469 548.695312 C 803.996094 547.460938 806.597656 546.152344 809.160156 544.769531 C 811.722656 543.386719 814.246094 541.929688 816.726562 540.402344 C 819.207031 538.875 821.640625 537.273438 824.027344 535.605469 C 826.414062 533.9375 828.753906 532.203125 831.039062 530.398438 C 833.328125 528.59375 835.5625 526.726562 837.742188 524.796875 C 839.921875 522.863281 842.046875 520.871094 844.109375 518.816406 C 846.175781 516.761719 848.179688 514.652344 850.125 512.480469 C 852.070312 510.3125 853.949219 508.089844 855.765625 505.8125 C 857.582031 503.535156 859.332031 501.207031 861.011719 498.828125 C 862.695312 496.449219 864.308594 494.023438 865.847656 491.554688 C 867.390625 489.082031 868.863281 486.570312 870.257812 484.011719 C 871.65625 481.457031 872.980469 478.863281 874.230469 476.230469 C 875.476562 473.597656 876.648438 470.933594 877.746094 468.234375 C 878.839844 465.535156 879.855469 462.804688 880.792969 460.046875 C 881.730469 457.289062 882.589844 454.507812 883.367188 451.699219 C 884.144531 448.894531 884.84375 446.066406 885.457031 443.21875 C 886.070312 440.371094 886.605469 437.507812 887.054688 434.632812 C 887.503906 431.753906 887.871094 428.863281 888.15625 425.964844 C 888.441406 423.066406 888.640625 420.160156 888.757812 417.25 C 888.875 414.339844 888.90625 411.429688 888.855469 408.515625 C 888.804688 405.601562 888.671875 402.695312 888.453125 399.789062 C 888.234375 396.886719 887.933594 393.988281 887.546875 391.101562 C 887.164062 388.214844 886.695312 385.339844 886.144531 382.480469 C 885.59375 379.617188 884.964844 376.777344 884.25 373.953125 C 883.535156 371.128906 882.742188 368.328125 881.867188 365.546875 C 880.992188 362.769531 880.035156 360.019531 879.003906 357.296875 C 877.96875 354.570312 876.859375 351.878906 875.667969 349.222656 C 874.480469 346.5625 873.21875 343.9375 871.878906 341.351562 C 870.539062 338.765625 869.125 336.21875 867.640625 333.710938 C 866.152344 331.207031 864.597656 328.746094 862.96875 326.332031 C 861.339844 323.914062 859.644531 321.546875 857.882812 319.230469 C 856.117188 316.910156 854.289062 314.644531 852.394531 312.433594 C 850.5 310.21875 848.542969 308.0625 846.527344 305.960938 C 844.507812 303.863281 842.429688 301.820312 840.292969 299.839844 C 838.15625 297.859375 835.96875 295.941406 833.71875 294.085938 C 831.472656 292.234375 829.175781 290.445312 826.828125 288.722656 C 824.476562 287 822.082031 285.347656 819.636719 283.761719 C 817.191406 282.175781 814.703125 280.664062 812.171875 279.222656 C 809.640625 277.78125 807.070312 276.414062 804.460938 275.121094 C 801.851562 273.828125 799.203125 272.609375 796.523438 271.46875 C 793.84375 270.328125 791.132812 269.265625 788.390625 268.28125 C 785.652344 267.296875 782.882812 266.390625 780.089844 265.566406 C 777.296875 264.738281 774.480469 263.996094 771.644531 263.332031 C 768.808594 262.667969 765.957031 262.085938 763.085938 261.585938 C 760.214844 261.085938 757.332031 260.671875 754.441406 260.335938 C 751.546875 260.003906 748.644531 259.753906 745.738281 259.585938 C 742.828125 259.421875 739.917969 259.339844 737.003906 259.339844 Z M 737.003906 548.625 C 730.542969 548.621094 724.113281 548.160156 717.71875 547.246094 C 711.320312 546.332031 705.019531 544.96875 698.816406 543.164062 C 692.613281 541.355469 686.566406 539.121094 680.679688 536.460938 C 674.789062 533.796875 669.121094 530.734375 663.667969 527.269531 C 662.484375 526.519531 661.195312 526.144531 659.796875 526.144531 C 659.011719 526.144531 658.25 526.269531 657.507812 526.519531 L 603.789062 544.421875 L 621.699219 490.710938 C 622.039062 489.679688 622.144531 488.625 622.015625 487.546875 C 621.882812 486.46875 621.527344 485.472656 620.949219 484.550781 C 619.609375 482.425781 618.324219 480.261719 617.101562 478.0625 C 615.878906 475.863281 614.71875 473.632812 613.617188 471.371094 C 612.515625 469.109375 611.480469 466.816406 610.503906 464.496094 C 609.53125 462.175781 608.621094 459.832031 607.773438 457.464844 C 606.929688 455.09375 606.148438 452.703125 605.433594 450.289062 C 604.722656 447.878906 604.074219 445.449219 603.492188 443 C 602.914062 440.550781 602.398438 438.089844 601.953125 435.613281 C 601.507812 433.136719 601.132812 430.648438 600.824219 428.152344 C 600.515625 425.65625 600.273438 423.152344 600.105469 420.640625 C 599.933594 418.132812 599.832031 415.617188 599.796875 413.101562 C 599.765625 410.585938 599.800781 408.074219 599.90625 405.558594 C 600.011719 403.042969 600.1875 400.535156 600.429688 398.03125 C 600.671875 395.527344 600.984375 393.03125 601.367188 390.542969 C 601.746094 388.058594 602.195312 385.582031 602.710938 383.121094 C 603.226562 380.65625 603.8125 378.210938 604.460938 375.78125 C 605.113281 373.351562 605.832031 370.941406 606.613281 368.550781 C 607.398438 366.160156 608.246094 363.789062 609.160156 361.445312 C 610.074219 359.101562 611.050781 356.785156 612.09375 354.496094 C 613.132812 352.203125 614.238281 349.945312 615.402344 347.714844 C 616.566406 345.484375 617.792969 343.289062 619.078125 341.125 C 620.363281 338.960938 621.710938 336.835938 623.113281 334.75 C 624.515625 332.660156 625.972656 330.613281 627.488281 328.601562 C 629.003906 326.59375 630.574219 324.628906 632.199219 322.707031 C 633.820312 320.785156 635.496094 318.910156 637.222656 317.078125 C 638.949219 315.25 640.726562 313.46875 642.550781 311.734375 C 644.375 310.003906 646.246094 308.320312 648.160156 306.691406 C 650.078125 305.0625 652.039062 303.488281 654.042969 301.964844 C 656.046875 300.441406 658.089844 298.976562 660.175781 297.566406 C 662.257812 296.160156 664.378906 294.808594 666.539062 293.515625 C 668.695312 292.222656 670.886719 290.988281 673.113281 289.816406 C 675.339844 288.644531 677.597656 287.535156 679.882812 286.484375 C 682.171875 285.4375 684.484375 284.453125 686.828125 283.53125 C 689.167969 282.609375 691.535156 281.753906 693.921875 280.960938 C 696.308594 280.171875 698.71875 279.445312 701.148438 278.789062 C 703.574219 278.128906 706.019531 277.535156 708.480469 277.011719 C 710.941406 276.488281 713.414062 276.03125 715.898438 275.644531 C 718.386719 275.253906 720.878906 274.933594 723.382812 274.683594 C 725.886719 274.433594 728.394531 274.25 730.910156 274.136719 C 733.421875 274.023438 735.9375 273.980469 738.453125 274.003906 C 740.96875 274.027344 743.484375 274.121094 745.992188 274.285156 C 748.503906 274.449219 751.007812 274.679688 753.507812 274.980469 C 756.003906 275.28125 758.492188 275.648438 760.96875 276.085938 C 763.449219 276.523438 765.910156 277.03125 768.359375 277.601562 C 770.8125 278.175781 773.242188 278.816406 775.660156 279.519531 C 778.074219 280.226562 780.464844 281 782.839844 281.839844 C 785.210938 282.675781 787.558594 283.578125 789.882812 284.546875 C 792.203125 285.511719 794.5 286.542969 796.765625 287.636719 C 799.03125 288.730469 801.265625 289.882812 803.46875 291.101562 C 805.671875 292.316406 807.839844 293.59375 809.96875 294.925781 C 812.101562 296.261719 814.195312 297.65625 816.253906 299.105469 C 818.308594 300.554688 820.324219 302.0625 822.296875 303.621094 C 824.269531 305.183594 826.199219 306.796875 828.082031 308.464844 C 829.96875 310.132812 831.804688 311.847656 833.59375 313.617188 C 835.386719 315.386719 837.125 317.203125 838.816406 319.066406 C 840.503906 320.929688 842.144531 322.835938 843.730469 324.792969 C 845.3125 326.746094 846.84375 328.742188 848.320312 330.777344 C 849.796875 332.816406 851.214844 334.894531 852.574219 337.007812 C 853.9375 339.125 855.238281 341.277344 856.480469 343.464844 C 857.726562 345.652344 858.90625 347.871094 860.027344 350.125 C 861.148438 352.375 862.207031 354.65625 863.203125 356.96875 C 864.199219 359.277344 865.132812 361.617188 866 363.976562 C 866.867188 366.339844 867.667969 368.722656 868.402344 371.128906 C 869.140625 373.535156 869.808594 375.957031 870.414062 378.402344 C 871.015625 380.84375 871.550781 383.300781 872.019531 385.773438 C 872.488281 388.246094 872.886719 390.730469 873.21875 393.222656 C 873.550781 395.71875 873.8125 398.21875 874.007812 400.726562 C 874.199219 403.234375 874.324219 405.746094 874.382812 408.261719 C 874.4375 410.777344 874.421875 413.292969 874.339844 415.808594 C 874.257812 418.320312 874.105469 420.832031 873.886719 423.339844 C 873.667969 425.84375 873.378906 428.34375 873.019531 430.835938 C 872.660156 433.324219 872.234375 435.804688 871.742188 438.269531 C 871.25 440.738281 870.6875 443.1875 870.058594 445.625 C 869.429688 448.0625 868.734375 450.480469 867.972656 452.875 C 867.210938 455.273438 866.382812 457.648438 865.492188 460.003906 C 864.601562 462.355469 863.644531 464.679688 862.625 466.980469 C 861.605469 469.28125 860.519531 471.550781 859.375 473.792969 C 858.230469 476.03125 857.027344 478.238281 855.761719 480.414062 C 854.492188 482.585938 853.167969 484.726562 851.785156 486.828125 C 850.402344 488.929688 848.960938 490.988281 847.464844 493.011719 C 845.96875 495.035156 844.414062 497.015625 842.808594 498.949219 C 841.203125 500.886719 839.546875 502.777344 837.835938 504.625 C 836.125 506.46875 834.367188 508.269531 832.558594 510.015625 C 830.75 511.765625 828.894531 513.464844 826.992188 515.113281 C 825.089844 516.757812 823.144531 518.351562 821.15625 519.890625 C 819.167969 521.433594 817.136719 522.917969 815.066406 524.34375 C 812.992188 525.773438 810.886719 527.144531 808.738281 528.457031 C 806.59375 529.769531 804.410156 531.023438 802.195312 532.214844 C 799.980469 533.40625 797.734375 534.539062 795.457031 535.609375 C 793.179688 536.675781 790.875 537.683594 788.542969 538.625 C 786.207031 539.566406 783.851562 540.445312 781.46875 541.257812 C 779.089844 542.070312 776.6875 542.820312 774.265625 543.5 C 771.84375 544.179688 769.40625 544.792969 766.949219 545.339844 C 764.492188 545.886719 762.023438 546.367188 759.542969 546.777344 C 757.058594 547.191406 754.566406 547.53125 752.066406 547.808594 C 749.566406 548.082031 747.058594 548.285156 744.546875 548.421875 C 742.035156 548.558594 739.519531 548.625 737.003906 548.625 Z M 744.238281 490.769531 C 744.238281 491.242188 744.191406 491.714844 744.097656 492.179688 C 744.003906 492.644531 743.867188 493.097656 743.6875 493.535156 C 743.503906 493.972656 743.28125 494.390625 743.019531 494.785156 C 742.753906 495.179688 742.453125 495.546875 742.117188 495.882812 C 741.78125 496.21875 741.417969 496.515625 741.023438 496.78125 C 740.628906 497.046875 740.210938 497.269531 739.773438 497.449219 C 739.332031 497.632812 738.882812 497.769531 738.414062 497.859375 C 737.949219 497.953125 737.480469 498 737.003906 498 C 736.53125 498 736.058594 497.953125 735.59375 497.859375 C 735.128906 497.769531 734.675781 497.632812 734.238281 497.449219 C 733.796875 497.269531 733.382812 497.046875 732.988281 496.78125 C 732.59375 496.515625 732.226562 496.21875 731.890625 495.882812 C 731.554688 495.546875 731.253906 495.179688 730.992188 494.785156 C 730.726562 494.390625 730.503906 493.972656 730.324219 493.535156 C 730.140625 493.097656 730.003906 492.644531 729.910156 492.179688 C 729.820312 491.714844 729.773438 491.242188 729.773438 490.769531 C 729.773438 490.292969 729.820312 489.824219 729.910156 489.355469 C 730.003906 488.890625 730.140625 488.4375 730.324219 488 C 730.503906 487.5625 730.726562 487.144531 730.992188 486.75 C 731.253906 486.355469 731.554688 485.988281 731.890625 485.652344 C 732.226562 485.316406 732.59375 485.019531 732.988281 484.753906 C 733.382812 484.492188 733.796875 484.269531 734.238281 484.085938 C 734.675781 483.90625 735.128906 483.765625 735.59375 483.675781 C 736.058594 483.582031 736.53125 483.535156 737.003906 483.535156 C 737.480469 483.535156 737.949219 483.582031 738.414062 483.675781 C 738.882812 483.765625 739.332031 483.90625 739.773438 484.085938 C 740.210938 484.269531 740.628906 484.492188 741.023438 484.753906 C 741.417969 485.019531 741.78125 485.316406 742.117188 485.652344 C 742.453125 485.988281 742.753906 486.355469 743.019531 486.75 C 743.28125 487.144531 743.503906 487.5625 743.6875 488 C 743.867188 488.4375 744.003906 488.890625 744.097656 489.355469 C 744.191406 489.824219 744.238281 490.292969 744.238281 490.769531 Z M 786.824219 373.167969 C 787.054688 374.464844 787.234375 375.769531 787.367188 377.078125 C 787.496094 378.390625 787.574219 379.703125 787.605469 381.019531 C 787.632812 382.335938 787.609375 383.652344 787.535156 384.964844 C 787.460938 386.28125 787.335938 387.589844 787.160156 388.894531 C 786.984375 390.199219 786.761719 391.496094 786.484375 392.785156 C 786.207031 394.074219 785.882812 395.347656 785.507812 396.609375 C 785.132812 397.871094 784.710938 399.117188 784.238281 400.347656 C 783.765625 401.578125 783.25 402.789062 782.683594 403.976562 C 782.117188 405.167969 781.507812 406.332031 780.851562 407.472656 C 780.195312 408.617188 779.5 409.730469 778.757812 410.820312 C 778.015625 411.90625 777.230469 412.964844 776.40625 413.992188 C 775.582031 415.019531 774.71875 416.011719 773.820312 416.972656 C 772.917969 417.933594 771.980469 418.859375 771.007812 419.746094 C 770.035156 420.632812 769.03125 421.480469 767.992188 422.292969 C 766.953125 423.101562 765.886719 423.871094 764.785156 424.597656 C 763.6875 425.324219 762.5625 426.007812 761.414062 426.644531 C 760.167969 427.265625 758.96875 427.964844 757.816406 428.742188 C 756.664062 429.523438 755.570312 430.378906 754.53125 431.304688 C 753.496094 432.234375 752.523438 433.226562 751.621094 434.285156 C 750.71875 435.34375 749.890625 436.457031 749.140625 437.628906 C 748.386719 438.796875 747.714844 440.011719 747.125 441.273438 C 746.539062 442.535156 746.035156 443.828125 745.621094 445.15625 C 745.207031 446.484375 744.886719 447.835938 744.652344 449.207031 C 744.421875 450.578125 744.28125 451.960938 744.238281 453.351562 C 744.242188 453.84375 744.203125 454.328125 744.113281 454.8125 C 744.027344 455.296875 743.898438 455.769531 743.722656 456.230469 C 743.542969 456.6875 743.328125 457.125 743.066406 457.542969 C 742.808594 457.964844 742.511719 458.351562 742.179688 458.714844 C 741.847656 459.078125 741.484375 459.402344 741.085938 459.695312 C 740.691406 459.992188 740.273438 460.242188 739.832031 460.457031 C 739.386719 460.671875 738.929688 460.839844 738.453125 460.96875 C 737.976562 461.09375 737.496094 461.175781 737.003906 461.210938 C 736.546875 461.246094 736.089844 461.234375 735.636719 461.175781 C 735.179688 461.117188 734.734375 461.011719 734.300781 460.863281 C 733.867188 460.714844 733.453125 460.523438 733.058594 460.289062 C 732.664062 460.054688 732.300781 459.78125 731.960938 459.472656 C 731.621094 459.164062 731.316406 458.824219 731.046875 458.453125 C 730.777344 458.082031 730.550781 457.683594 730.363281 457.265625 C 730.175781 456.847656 730.03125 456.414062 729.929688 455.96875 C 729.832031 455.519531 729.777344 455.066406 729.773438 454.605469 L 729.773438 453.351562 C 729.8125 451.3125 729.988281 449.289062 730.304688 447.277344 C 730.617188 445.265625 731.0625 443.285156 731.644531 441.332031 C 732.226562 439.382812 732.9375 437.476562 733.777344 435.621094 C 734.617188 433.765625 735.574219 431.976562 736.65625 430.25 C 737.738281 428.523438 738.929688 426.878906 740.234375 425.316406 C 741.535156 423.75 742.9375 422.28125 744.441406 420.90625 C 745.941406 419.53125 747.53125 418.261719 749.203125 417.101562 C 750.878906 415.941406 752.621094 414.898438 754.433594 413.976562 C 755.363281 413.464844 756.265625 412.917969 757.144531 412.328125 C 758.023438 411.738281 758.875 411.113281 759.699219 410.449219 C 760.519531 409.785156 761.3125 409.085938 762.078125 408.351562 C 762.839844 407.621094 763.566406 406.855469 764.261719 406.058594 C 764.957031 405.261719 765.617188 404.433594 766.242188 403.578125 C 766.863281 402.722656 767.449219 401.84375 767.992188 400.9375 C 768.539062 400.03125 769.042969 399.101562 769.507812 398.152344 C 769.972656 397.199219 770.394531 396.230469 770.773438 395.242188 C 771.152344 394.257812 771.484375 393.253906 771.777344 392.238281 C 772.066406 391.21875 772.3125 390.191406 772.515625 389.152344 C 772.714844 388.113281 772.871094 387.070312 772.980469 386.015625 C 773.089844 384.964844 773.152344 383.910156 773.167969 382.851562 C 773.183594 381.792969 773.15625 380.738281 773.078125 379.683594 C 773.003906 378.628906 772.878906 377.578125 772.710938 376.535156 C 772.542969 375.488281 772.328125 374.453125 772.070312 373.429688 C 771.8125 372.402344 771.507812 371.390625 771.160156 370.390625 C 770.8125 369.390625 770.421875 368.410156 769.988281 367.445312 C 769.550781 366.480469 769.078125 365.539062 768.558594 364.613281 C 768.042969 363.691406 767.488281 362.792969 766.890625 361.917969 C 766.292969 361.042969 765.660156 360.199219 764.992188 359.378906 C 764.320312 358.5625 763.617188 357.773438 762.878906 357.015625 C 762.136719 356.261719 761.367188 355.539062 760.566406 354.847656 C 759.761719 354.160156 758.929688 353.507812 758.070312 352.890625 C 757.210938 352.273438 756.324219 351.695312 755.414062 351.160156 C 754.503906 350.621094 753.574219 350.121094 752.617188 349.667969 C 751.664062 349.210938 750.691406 348.796875 749.699219 348.425781 C 748.710938 348.054688 747.707031 347.726562 746.6875 347.441406 C 745.667969 347.160156 744.636719 346.921875 743.597656 346.730469 C 742.558594 346.535156 741.511719 346.390625 740.457031 346.289062 C 739.40625 346.1875 738.347656 346.132812 737.292969 346.125 C 736.234375 346.117188 735.175781 346.15625 734.121094 346.238281 C 733.066406 346.324219 732.019531 346.453125 730.976562 346.628906 C 729.933594 346.804688 728.898438 347.027344 727.875 347.296875 C 726.851562 347.5625 725.84375 347.875 724.847656 348.230469 C 723.851562 348.585938 722.871094 348.984375 721.910156 349.425781 C 720.949219 349.867188 720.007812 350.351562 719.089844 350.875 C 718.171875 351.398438 717.277344 351.960938 716.40625 352.5625 C 715.539062 353.167969 714.695312 353.804688 713.882812 354.484375 C 713.070312 355.160156 712.289062 355.871094 711.539062 356.613281 C 710.785156 357.359375 710.070312 358.136719 709.386719 358.945312 C 708.703125 359.753906 708.058594 360.589844 707.449219 361.453125 C 706.839844 362.316406 706.269531 363.207031 705.738281 364.121094 C 705.207031 365.039062 704.714844 365.972656 704.265625 366.929688 C 703.816406 367.890625 703.410156 368.863281 703.046875 369.859375 C 702.683594 370.851562 702.363281 371.859375 702.089844 372.878906 C 701.8125 373.902344 701.582031 374.933594 701.398438 375.976562 C 701.214844 377.015625 701.074219 378.0625 700.984375 379.117188 C 700.890625 380.171875 700.84375 381.226562 700.84375 382.285156 C 700.84375 382.761719 700.796875 383.230469 700.703125 383.695312 C 700.613281 384.164062 700.476562 384.613281 700.292969 385.054688 C 700.113281 385.492188 699.890625 385.910156 699.625 386.304688 C 699.359375 386.699219 699.0625 387.0625 698.726562 387.398438 C 698.390625 387.734375 698.023438 388.035156 697.628906 388.300781 C 697.234375 388.5625 696.816406 388.785156 696.378906 388.96875 C 695.941406 389.148438 695.488281 389.285156 695.023438 389.378906 C 694.558594 389.472656 694.085938 389.519531 693.613281 389.519531 C 693.136719 389.519531 692.667969 389.472656 692.199219 389.378906 C 691.734375 389.285156 691.28125 389.148438 690.84375 388.96875 C 690.40625 388.785156 689.988281 388.5625 689.59375 388.300781 C 689.199219 388.035156 688.832031 387.734375 688.496094 387.398438 C 688.160156 387.0625 687.863281 386.699219 687.597656 386.304688 C 687.335938 385.910156 687.113281 385.492188 686.929688 385.054688 C 686.75 384.613281 686.609375 384.164062 686.519531 383.695312 C 686.425781 383.230469 686.378906 382.761719 686.378906 382.285156 C 686.378906 380.722656 686.449219 379.164062 686.59375 377.605469 C 686.738281 376.050781 686.953125 374.503906 687.242188 372.96875 C 687.527344 371.429688 687.886719 369.910156 688.3125 368.40625 C 688.742188 366.902344 689.238281 365.425781 689.800781 363.964844 C 690.367188 362.507812 691 361.082031 691.695312 359.683594 C 692.390625 358.28125 693.152344 356.917969 693.976562 355.589844 C 694.800781 354.261719 695.683594 352.972656 696.625 351.726562 C 697.566406 350.480469 698.566406 349.28125 699.621094 348.125 C 700.675781 346.972656 701.777344 345.867188 702.933594 344.816406 C 704.089844 343.765625 705.292969 342.769531 706.542969 341.828125 C 707.789062 340.886719 709.078125 340.007812 710.410156 339.183594 C 711.738281 338.363281 713.105469 337.605469 714.503906 336.910156 C 715.902344 336.214844 717.332031 335.585938 718.792969 335.023438 C 720.25 334.460938 721.730469 333.96875 723.234375 333.542969 C 724.738281 333.117188 726.257812 332.761719 727.796875 332.476562 C 729.332031 332.195312 730.878906 331.980469 732.4375 331.839844 C 733.992188 331.699219 735.554688 331.628906 737.117188 331.632812 C 738.679688 331.636719 740.238281 331.710938 741.792969 331.859375 C 743.351562 332.003906 744.898438 332.226562 746.433594 332.515625 C 747.96875 332.804688 749.488281 333.167969 750.988281 333.597656 C 752.492188 334.03125 753.972656 334.53125 755.425781 335.097656 C 756.882812 335.667969 758.308594 336.300781 759.707031 337 C 761.105469 337.703125 762.464844 338.464844 763.792969 339.292969 C 765.121094 340.117188 766.40625 341.003906 767.648438 341.949219 C 768.894531 342.898438 770.09375 343.898438 771.242188 344.953125 C 772.394531 346.011719 773.496094 347.117188 774.546875 348.277344 C 775.59375 349.4375 776.589844 350.640625 777.527344 351.890625 C 778.464844 353.140625 779.339844 354.433594 780.160156 355.765625 C 780.976562 357.097656 781.730469 358.464844 782.421875 359.863281 C 783.113281 361.265625 783.742188 362.695312 784.300781 364.15625 C 784.859375 365.617188 785.347656 367.097656 785.769531 368.605469 C 786.191406 370.109375 786.542969 371.628906 786.824219 373.167969 Z M 786.824219 373.167969 " fill-opacity="1" fill-rule="nonzero"/></svg>