<svg xmlns="http://www.w3.org/2000/svg" xmlns:xlink="http://www.w3.org/1999/xlink" width="1920" zoomAndPan="magnify" viewBox="0 0 1440 809.999993" height="1080" preserveAspectRatio="xMidYMid meet" version="1.0"><defs><clipPath id="342aa97d0d"><path d="M 565.898438 243 L 874.148438 243 L 874.148438 567 L 565.898438 567 Z M 565.898438 243 " clip-rule="nonzero"/></clipPath></defs><path fill="#ffffff" d="M 720.007812 323.191406 C 685.960938 323.191406 658.363281 352.179688 658.363281 387.9375 C 658.363281 423.699219 685.960938 452.6875 720.007812 452.6875 C 754.054688 452.6875 781.652344 423.699219 781.652344 387.9375 C 781.652344 352.179688 754.054688 323.191406 720.007812 323.191406 " fill-opacity="1" fill-rule="nonzero"/><g clip-path="url(#342aa97d0d)"><path fill="#ffffff" d="M 822.386719 516.746094 C 808.734375 483.421875 780.074219 462.574219 719.914062 462.574219 C 659.835938 462.574219 631.171875 483.367188 617.5 516.617188 C 589.671875 488.410156 572.359375 448.828125 572.359375 405 C 572.359375 319.347656 638.464844 249.914062 720.007812 249.914062 C 801.554688 249.914062 867.660156 319.347656 867.660156 405 C 867.660156 448.898438 850.292969 488.53125 822.386719 516.746094 Z M 720.007812 243.128906 C 634.894531 243.128906 565.898438 315.601562 565.898438 405 C 565.898438 451.757812 584.773438 493.886719 614.960938 523.4375 C 642.480469 550.382812 679.410156 566.871094 720.007812 566.871094 C 760.535156 566.871094 797.40625 550.4375 824.917969 523.570312 C 855.183594 494.015625 874.121094 451.832031 874.121094 405 C 874.121094 315.601562 805.117188 243.128906 720.007812 243.128906 " fill-opacity="1" fill-rule="nonzero"/></g></svg>