<svg xmlns="http://www.w3.org/2000/svg" xmlns:xlink="http://www.w3.org/1999/xlink" width="500" zoomAndPan="magnify" viewBox="0 0 375 374.999991" height="500" preserveAspectRatio="xMidYMid meet" version="1.0"><defs><g/><clipPath id="ca96056a99"><path d="M 113 87.066406 L 262 87.066406 L 262 236.316406 L 113 236.316406 Z M 113 87.066406 " clip-rule="nonzero"/></clipPath></defs><g clip-path="url(#ca96056a99)"><path fill="#032b30" d="M 227.882812 214.78125 C 205.675781 231.757812 176.203125 232.554688 153.578125 219.070312 C 152.015625 218.140625 150.96875 216.546875 150.726562 214.742188 C 150.726562 214.734375 150.726562 214.730469 150.722656 214.722656 C 149.023438 207.734375 141.355469 193.148438 150.882812 175.902344 C 157.007812 164.8125 165.335938 159.28125 182.59375 152.933594 C 199.410156 146.75 204.167969 134.980469 209.109375 136.597656 C 214.5 138.363281 213.0625 146.609375 197.800781 157.789062 C 197.800781 157.789062 210.46875 152.078125 220.828125 137.480469 C 225.828125 130.433594 228.558594 126.085938 230.566406 123.59375 C 221.980469 114.035156 210.1875 107.273438 196.535156 105.15625 C 165.078125 100.269531 135.191406 122.347656 130.585938 153.886719 C 128.171875 170.402344 132.996094 186.308594 142.660156 198.382812 C 144.296875 205.96875 147.84375 213.03125 149.90625 216.714844 C 144.28125 212.835938 139.15625 208.015625 134.785156 202.285156 C 112.5 173.0625 118.0625 131.425781 147.234375 109.09375 C 175.996094 87.078125 216.964844 92.21875 239.449219 120.394531 C 235.855469 117.664062 232.632812 121.503906 232.632812 121.503906 L 232.632812 121.507812 C 233.796875 120.679688 234.894531 120.582031 236.441406 120.949219 C 241.082031 122.046875 233.164062 135.328125 229.679688 140.136719 C 229.679688 140.136719 222.574219 139.464844 218.136719 145.011719 C 218.136719 145.011719 223.925781 140.3125 228.339844 142.660156 C 228.339844 142.660156 226.171875 150.164062 217.285156 157.886719 C 208.398438 165.609375 198.242188 173.375 192.175781 176.585938 C 178.613281 183.765625 170.394531 183.640625 161.667969 192.597656 C 161.621094 192.648438 161.574219 192.695312 161.527344 192.746094 C 154.410156 200.15625 157.261719 212.425781 166.835938 216.132812 C 170.710938 217.632812 174.804688 218.734375 179.082031 219.378906 C 210.574219 224.132812 240.171875 202.160156 244.78125 170.613281 C 246.617188 158.027344 244.253906 145.796875 238.753906 135.347656 C 240.511719 129.609375 241.5625 124.773438 241.058594 122.5 C 262.5 151.640625 256.726562 192.726562 227.882812 214.78125 Z M 187.558594 87.539062 C 146.527344 87.539062 113.269531 120.84375 113.269531 161.925781 C 113.269531 203.003906 146.527344 236.308594 187.558594 236.308594 C 228.589844 236.308594 261.851562 203.003906 261.851562 161.925781 C 261.851562 120.84375 228.589844 87.539062 187.558594 87.539062 Z M 187.558594 87.539062 " fill-opacity="1" fill-rule="evenodd"/></g><g fill="#000000" fill-opacity="1"><g transform="translate(152.342695, 271.504612)"><g><path d="M 4.46875 -7.285156 C 4.46875 -7.816406 4.46875 -8.3125 4.570312 -8.875 C 4.601562 -9.207031 4.636719 -9.503906 4.636719 -9.734375 C 4.636719 -10.132812 4.535156 -10.398438 4.238281 -10.464844 C 4.273438 -10.730469 4.273438 -11.027344 4.238281 -11.257812 C 4.105469 -12.75 2.78125 -13.34375 1.988281 -13.34375 C 1.753906 -13.34375 0.859375 -13.277344 0.792969 -13.082031 C 0.730469 -12.75 -0.199219 -11.523438 -0.199219 -11.523438 C -0.199219 -11.390625 -0.132812 -11.324219 -0.0976562 -11.226562 L -0.0976562 -11.257812 L 0.296875 -10.53125 C 0.296875 -10.101562 0.296875 -9.539062 0.332031 -9.140625 C 0.332031 -8.710938 0.363281 -8.277344 0.363281 -7.882812 C 0.363281 -7.320312 0.332031 -6.789062 0.230469 -6.257812 C 0.296875 -5.597656 0.332031 -5.101562 0.332031 -4.667969 C 0.332031 -4.371094 0.296875 -3.90625 0.296875 -3.675781 L 0.296875 -2.847656 C 0.429688 -1.523438 1.855469 0.363281 3.277344 0.363281 C 3.742188 0.363281 4.039062 0.164062 4.339844 0.03125 L 4.570312 -0.0976562 C 4.304688 -0.265625 5.761719 -1.359375 7.019531 -2.1875 C 7.648438 -2.617188 7.714844 -2.816406 7.78125 -2.980469 C 7.816406 -3.078125 8.3125 -3.445312 8.445312 -3.542969 C 10.863281 -6.390625 13.710938 -10.5625 13.675781 -12.714844 C 13.644531 -13.148438 13.542969 -13.476562 13.445312 -13.777344 C 13.34375 -14.105469 13.246094 -14.40625 13.214844 -14.671875 L 13.214844 -15.035156 C 12.816406 -15.730469 12.417969 -16.257812 12.121094 -16.257812 C 11.921875 -16.257812 11.789062 -15.996094 11.789062 -15.464844 C 11.789062 -15.332031 11.789062 -15.101562 11.820312 -14.933594 C 11.789062 -14.4375 11.691406 -12.914062 11.558594 -12.648438 C 11.257812 -8.941406 7.484375 -3.246094 5.035156 -1.886719 C 4.933594 -1.921875 4.601562 -2.21875 4.535156 -2.351562 L 4.535156 -4.636719 C 4.535156 -6.457031 4.503906 -7.054688 4.46875 -7.285156 Z M 4.46875 -7.285156 "/></g></g></g><g fill="#000000" fill-opacity="1"><g transform="translate(165.422395, 271.504612)"><g><path d="M 9.238281 -1.988281 C 9.4375 -1.886719 9.636719 -1.886719 9.867188 -1.886719 C 11.988281 -1.886719 14.734375 -5.863281 15.398438 -7.683594 C 15.695312 -8.210938 15.433594 -8.445312 15.132812 -8.445312 C 15 -8.445312 14.902344 -8.410156 14.800781 -8.34375 C 14.4375 -7.78125 14.140625 -7.285156 13.84375 -6.753906 C 13.644531 -6.457031 13.476562 -6.125 13.277344 -5.863281 C 13.277344 -5.828125 13.246094 -5.828125 13.214844 -5.761719 C 12.617188 -4.96875 11.125 -2.945312 10.066406 -2.945312 C 10 -2.945312 9.902344 -2.945312 9.769531 -2.980469 L 9.601562 -2.980469 C 9.800781 -3.410156 10.199219 -4.105469 10.199219 -4.238281 L 10.101562 -4.96875 L 10.167969 -5.230469 C 10.265625 -5.496094 10.363281 -5.664062 10.132812 -5.925781 L 10.035156 -6.058594 C 10 -6.09375 10 -6.125 9.96875 -6.125 C 10 -6.457031 9.96875 -6.625 9.902344 -6.820312 C 9.902344 -6.988281 9.902344 -7.121094 9.800781 -7.21875 L 9.667969 -7.21875 C 9.539062 -7.882812 8.777344 -8.082031 8.277344 -8.082031 C 7.648438 -8.046875 7.121094 -8.113281 6.820312 -5.761719 C 6.988281 -4.570312 7.683594 -3.277344 8.3125 -2.882812 C 8.210938 -2.484375 7.78125 -1.722656 7.1875 -1.257812 C 7.019531 -1.160156 6.921875 -0.960938 6.789062 -0.792969 C 6.324219 -0.265625 5.863281 -0.0976562 5.132812 -0.0976562 C 4.800781 -0.0976562 4.503906 -0.164062 4.238281 -0.296875 C 3.941406 -0.398438 3.609375 -1.160156 3.609375 -1.589844 C 3.609375 -1.988281 3.707031 -2.550781 3.839844 -3.113281 L 3.839844 -3.246094 L 3.941406 -3.839844 C 4.007812 -4.4375 4.105469 -5.230469 4.207031 -5.464844 C 4.503906 -6.292969 4.96875 -7.085938 5.464844 -7.75 C 6.324219 -8.742188 8.378906 -9.835938 9.4375 -9.902344 C 9.539062 -9.902344 9.636719 -9.867188 9.734375 -9.867188 C 10.300781 -9.867188 10.464844 -10.132812 10.398438 -10.300781 C 10.429688 -11.65625 9.074219 -12.320312 7.78125 -12.980469 L 7.683594 -13.046875 C 7.351562 -13.179688 7.054688 -13.246094 6.65625 -13.246094 C 5.925781 -13.246094 5.132812 -12.949219 4.535156 -12.550781 L 4.339844 -12.453125 C 3.707031 -12.085938 3.144531 -11.65625 2.648438 -11.09375 L 2.648438 -11.125 C 1.457031 -9.933594 0.265625 -7.949219 0.164062 -6.292969 C 0.0664062 -5.597656 -0.0664062 -3.808594 -0.03125 -3.078125 C 0.0976562 -1.359375 1.125 -0.0976562 2.648438 0.628906 C 2.816406 0.664062 3.078125 0.730469 3.277344 0.730469 L 4.207031 1.160156 L 4.570312 1.160156 C 5.035156 1.160156 5.429688 1.125 5.863281 0.960938 C 6.292969 0.894531 6.523438 0.730469 6.820312 0.496094 C 6.921875 0.398438 7.054688 0.332031 7.1875 0.230469 C 7.617188 0 8.210938 -0.496094 8.378906 -0.859375 C 8.378906 -0.859375 8.378906 -0.925781 8.410156 -0.960938 C 8.511719 -1.292969 8.839844 -1.390625 8.90625 -1.523438 Z M 8.378906 -6.65625 C 8.511719 -6.65625 8.644531 -6.558594 8.710938 -6.523438 C 8.90625 -6.324219 9.074219 -5.992188 9.105469 -5.761719 L 9.273438 -5.035156 C 9.273438 -5 9.238281 -4.96875 9.238281 -4.933594 C 9.238281 -4.800781 9.105469 -4.703125 9.074219 -4.535156 L 8.777344 -3.742188 L 8.34375 -4.207031 L 8.34375 -4.4375 C 8.015625 -5.398438 8.113281 -5.730469 8.144531 -5.925781 C 8.179688 -6.058594 8.246094 -6.226562 8.210938 -6.324219 C 8.246094 -6.457031 8.277344 -6.558594 8.277344 -6.589844 C 8.34375 -6.65625 8.378906 -6.6875 8.378906 -6.65625 Z M 8.378906 -6.65625 "/></g></g></g><g fill="#000000" fill-opacity="1"><g transform="translate(178.502094, 271.504612)"><g><path d="M 8.445312 -4.570312 L 8.445312 -4.601562 L 8.542969 -4.867188 L 8.542969 -4.835938 C 9.140625 -5.761719 9.636719 -6.65625 10.066406 -7.382812 L 10.332031 -7.847656 C 10.429688 -8.046875 10.5625 -8.246094 10.664062 -8.378906 L 10.664062 -8.410156 C 10.730469 -8.476562 10.730469 -8.542969 10.695312 -8.609375 C 10.863281 -9.039062 10.695312 -9.238281 10.464844 -9.238281 C 10.300781 -9.238281 10.132812 -9.171875 9.96875 -9.007812 C 9.105469 -7.285156 7.617188 -4.902344 6.425781 -3.476562 L 6.191406 -3.210938 C 5.863281 -2.847656 5.496094 -2.449219 5.101562 -2.21875 C 4.570312 -1.753906 4.140625 -1.425781 3.90625 -1.324219 C 3.644531 -1.390625 3.476562 -1.589844 3.476562 -1.820312 C 3.476562 -2.121094 3.644531 -2.484375 3.875 -2.914062 L 4.007812 -3.046875 C 4.140625 -3.179688 4.140625 -3.210938 4.105469 -3.3125 L 4.074219 -3.34375 C 4.238281 -4.171875 4.503906 -5.101562 4.835938 -5.992188 L 4.835938 -6.191406 C 4.902344 -6.324219 5 -6.558594 5.035156 -6.6875 C 5.199219 -7.085938 5.398438 -7.582031 5.5625 -8.113281 C 5.53125 -8.246094 5.53125 -8.378906 5.53125 -8.511719 C 5.53125 -8.609375 5.53125 -8.808594 5.496094 -8.90625 C 5.496094 -9.007812 5.496094 -9.171875 5.464844 -9.273438 L 5.429688 -9.371094 C 5.398438 -9.371094 5.398438 -9.40625 5.398438 -9.4375 L 5.464844 -9.703125 C 5.597656 -10.132812 5.664062 -10.597656 5.628906 -10.929688 C 5.464844 -12.085938 4.703125 -13.511719 3.378906 -13.511719 C 3.179688 -13.511719 3.011719 -13.476562 2.882812 -13.378906 C 2.550781 -13.246094 2.351562 -12.882812 2.25 -12.386719 L 2.25 -12.1875 C 1.988281 -11.292969 1.589844 -10.332031 1.191406 -9.371094 L 0.664062 -7.683594 C 0.496094 -6.886719 0.363281 -6.191406 0.265625 -5.53125 L 0.265625 -4.933594 C 0.265625 -4.734375 0.230469 -4.535156 0.230469 -4.339844 C 0.230469 -2.515625 0.894531 -0.429688 2.914062 -0.03125 C 3.410156 -0.03125 3.839844 -0.0664062 4.304688 -0.296875 L 4.304688 -0.265625 C 4.703125 -0.429688 5.101562 -0.730469 5.5625 -1.027344 L 5.53125 -1.027344 L 5.695312 -1.125 C 5.992188 -1.390625 6.292969 -1.753906 6.589844 -2.085938 L 6.886719 -2.417969 C 7.417969 -2.980469 7.847656 -3.609375 8.246094 -4.207031 Z M 8.144531 -19.109375 C 8.3125 -19.339844 8.410156 -19.570312 8.511719 -19.738281 L 8.476562 -19.738281 C 8.675781 -20 8.808594 -20.265625 8.777344 -20.628906 C 8.710938 -20.828125 8.542969 -21.0625 8.34375 -21.226562 C 7.78125 -21.691406 6.789062 -22.054688 6.324219 -22.023438 C 5.828125 -22.023438 5.265625 -21.757812 4.800781 -21.328125 C 4.46875 -21.027344 4.238281 -20.566406 4.273438 -19.871094 C 4.273438 -18.976562 4.703125 -18.179688 5.164062 -17.78125 C 5.597656 -17.519531 6.058594 -17.351562 6.492188 -17.320312 C 7.019531 -17.320312 7.152344 -17.484375 7.75 -18.445312 Z M 8.144531 -19.109375 "/></g></g></g><g fill="#000000" fill-opacity="1"><g transform="translate(186.482356, 271.504612)"><g><path d="M 9.074219 -21.160156 C 8.90625 -21.292969 8.808594 -21.722656 8.710938 -22.089844 L 8.511719 -22.71875 L 8.511719 -23.28125 C 8.3125 -24.96875 6.65625 -25.929688 6.058594 -25.929688 C 5.53125 -25.929688 5.398438 -24.769531 5.265625 -23.414062 C 5.199219 -22.71875 5.132812 -21.890625 5 -21.128906 C 4.96875 -20.929688 4.867188 -20.664062 4.769531 -20.433594 C 4.667969 -20.234375 4.601562 -20.035156 4.535156 -19.738281 L 4.535156 -19.769531 L 3.742188 -17.617188 C 3.378906 -17.652344 2.945312 -17.683594 2.582031 -17.683594 L 1.425781 -17.75 C -0.496094 -17.914062 -1.953125 -18.3125 -2.945312 -18.710938 L -3.410156 -18.644531 C -3.511719 -18.742188 -3.578125 -18.777344 -3.644531 -18.777344 C -3.675781 -18.777344 -3.742188 -18.742188 -3.773438 -18.710938 C -3.941406 -18.710938 -4.007812 -18.578125 -4.007812 -18.445312 C -3.773438 -17.386719 -1.390625 -16.523438 1.457031 -16.226562 L 3.277344 -16.027344 C 3.179688 -15.53125 3.113281 -15.066406 3.046875 -14.605469 C 2.882812 -13.710938 2.75 -12.75 2.484375 -11.886719 L 2.484375 -11.921875 C 2.351562 -11.589844 2.25 -11.125 2.152344 -10.695312 L 2.019531 -10.132812 C 2.019531 -10.035156 2.054688 -9.933594 2.054688 -9.835938 C 1.226562 -7.582031 0.730469 -5.296875 0.792969 -4.105469 C 0.894531 -3.378906 1.921875 -2.417969 2.582031 -1.820312 C 2.882812 -1.160156 3.378906 -0.664062 4.339844 -0.664062 C 5.199219 -0.664062 6.492188 -1.855469 7.617188 -3.113281 L 8.808594 -4.601562 C 10.796875 -7.085938 12.019531 -9.339844 12.152344 -10.234375 C 12.152344 -10.300781 12.152344 -10.398438 12.085938 -10.496094 L 12.121094 -10.53125 L 12.121094 -10.496094 C 12.152344 -10.597656 12.1875 -10.695312 12.152344 -10.796875 C 12.152344 -10.960938 11.988281 -11.09375 11.855469 -11.09375 C 11.523438 -11.09375 10.398438 -8.941406 10 -8.144531 L 10 -8.179688 L 9.835938 -7.847656 C 9.539062 -7.1875 8.941406 -6.457031 8.410156 -5.796875 C 8.210938 -5.5625 7.980469 -5.332031 7.816406 -5.101562 C 6.855469 -3.941406 5.464844 -2.515625 4.867188 -2.25 C 4.734375 -2.382812 4.703125 -2.550781 4.703125 -2.78125 C 4.570312 -3.941406 5.230469 -5.894531 5.992188 -8.082031 L 6.886719 -10.761719 L 6.820312 -11.523438 C 7.085938 -12.320312 7.285156 -13.34375 7.417969 -14.207031 C 7.484375 -14.769531 7.582031 -15.332031 7.683594 -15.894531 L 10.53125 -15.761719 L 10.695312 -15.761719 C 10.796875 -15.730469 10.863281 -15.730469 10.996094 -15.730469 C 13.445312 -15.464844 15.695312 -14.671875 15.863281 -13.910156 L 16.324219 -13.910156 C 16.523438 -13.910156 16.757812 -13.976562 16.691406 -14.304688 C 16.558594 -15.265625 14.96875 -16.757812 11.324219 -17.121094 L 10.960938 -17.121094 C 10.863281 -17.085938 10.761719 -17.085938 10.695312 -17.085938 L 8.046875 -17.21875 C 8.476562 -18.675781 8.808594 -19.902344 9.074219 -21.0625 Z M 9.074219 -21.160156 "/></g></g></g><g fill="#000000" fill-opacity="1"><g transform="translate(194.926208, 271.504612)"><g><path d="M 7.417969 -7.75 C 7.484375 -6.921875 7.351562 -6.160156 7.21875 -5.53125 C 7.152344 -5.035156 7.054688 -4.636719 7.085938 -4.238281 C 7.1875 -2.980469 7.882812 -1.359375 9.039062 -1.160156 C 9.304688 -0.992188 9.570312 -0.925781 9.902344 -0.925781 C 10.035156 -0.925781 10.332031 -0.894531 10.5625 -0.859375 C 10.796875 -0.828125 11.09375 -0.761719 11.292969 -0.761719 C 11.953125 -0.761719 13.148438 -1.921875 13.578125 -2.515625 C 15.597656 -4.769531 16.128906 -5.628906 17.417969 -8.476562 L 17.386719 -8.476562 L 17.683594 -9.105469 C 17.75 -9.238281 17.75 -9.339844 17.75 -9.40625 C 17.714844 -9.667969 17.617188 -9.734375 17.453125 -9.734375 C 16.855469 -9.734375 16.128906 -8.210938 15.695312 -7.382812 L 15.730469 -7.382812 L 15.464844 -6.886719 C 13.875 -4.207031 11.789062 -1.589844 10.464844 -1.621094 C 10.199219 -1.621094 10.101562 -1.753906 10.101562 -1.953125 C 10.066406 -2.449219 10.464844 -3.277344 10.960938 -4.207031 L 10.960938 -4.171875 L 11.058594 -4.273438 C 11.589844 -4.835938 11.523438 -5.695312 11.492188 -6.09375 L 12.484375 -8.34375 L 12.386719 -9.304688 C 12.648438 -9.933594 12.78125 -10.5625 12.75 -10.929688 C 12.515625 -12.320312 11.921875 -13.277344 10.53125 -13.277344 C 9.472656 -13.277344 8.972656 -13.046875 7.914062 -12.417969 C 7.78125 -12.386719 7.320312 -12.054688 7.21875 -11.988281 L 6.6875 -11.558594 L 4.636719 -9.539062 C 4.703125 -10.101562 5.230469 -11.292969 5.828125 -12.78125 C 6.191406 -13.644531 6.589844 -14.605469 6.953125 -15.5625 C 7.648438 -16.425781 8.378906 -17.519531 8.378906 -18.410156 C 8.378906 -18.710938 8.082031 -19.304688 7.714844 -19.769531 C 7.847656 -20.234375 7.882812 -20.695312 7.847656 -21.027344 C 7.648438 -22.253906 6.359375 -23.148438 5.894531 -23.148438 C 5.664062 -23.148438 5.496094 -22.71875 5.265625 -22.023438 C 5.101562 -21.523438 4.902344 -20.894531 4.601562 -20.234375 L 3.410156 -17.914062 L 3.3125 -17.550781 C 3.078125 -16.921875 2.847656 -16.292969 2.550781 -15.664062 C 2.417969 -15.332031 2.285156 -14.96875 2.121094 -14.636719 L 2.121094 -13.710938 C 1.953125 -12.582031 1.554688 -11.359375 1.191406 -10.300781 C 0.730469 -8.972656 0.265625 -7.617188 0.332031 -6.359375 C 0.132812 -5.628906 -0.0664062 -4.570312 -0.132812 -3.90625 L 0.0664062 -2.648438 C -0.0664062 -2.121094 -0.0976562 -1.65625 -0.0664062 -1.292969 C 0.03125 -0.464844 0.925781 0.132812 1.390625 0.132812 C 1.523438 0.132812 1.722656 -0.132812 1.921875 -0.464844 C 2.152344 -0.792969 2.417969 -1.226562 2.75 -1.554688 C 3.113281 -1.621094 3.246094 -2.152344 3.277344 -2.515625 C 3.3125 -2.582031 3.34375 -2.617188 3.34375 -2.683594 C 3.839844 -3.246094 4.339844 -3.972656 4.835938 -4.734375 L 4.769531 -5.730469 C 4.769531 -5.925781 4.769531 -6.160156 4.734375 -6.359375 L 4.734375 -6.558594 C 4.734375 -6.589844 4.703125 -6.6875 4.703125 -6.753906 C 5.101562 -7.449219 5.496094 -8.082031 5.894531 -8.710938 L 6.125 -9.140625 L 6.125 -9.238281 C 6.058594 -9.636719 7.617188 -10.996094 8.113281 -11.390625 L 8.542969 -11.691406 C 8.644531 -11.691406 8.675781 -11.625 8.609375 -11.390625 C 8.542969 -11.160156 8.410156 -10.730469 8.3125 -10.101562 Z M 7.417969 -7.75 "/></g></g></g><g fill="#000000" fill-opacity="1"><g transform="translate(209.562221, 271.504612)"><g><path d="M 9.238281 -1.988281 C 9.4375 -1.886719 9.636719 -1.886719 9.867188 -1.886719 C 11.988281 -1.886719 14.734375 -5.863281 15.398438 -7.683594 C 15.695312 -8.210938 15.433594 -8.445312 15.132812 -8.445312 C 15 -8.445312 14.902344 -8.410156 14.800781 -8.34375 C 14.4375 -7.78125 14.140625 -7.285156 13.84375 -6.753906 C 13.644531 -6.457031 13.476562 -6.125 13.277344 -5.863281 C 13.277344 -5.828125 13.246094 -5.828125 13.214844 -5.761719 C 12.617188 -4.96875 11.125 -2.945312 10.066406 -2.945312 C 10 -2.945312 9.902344 -2.945312 9.769531 -2.980469 L 9.601562 -2.980469 C 9.800781 -3.410156 10.199219 -4.105469 10.199219 -4.238281 L 10.101562 -4.96875 L 10.167969 -5.230469 C 10.265625 -5.496094 10.363281 -5.664062 10.132812 -5.925781 L 10.035156 -6.058594 C 10 -6.09375 10 -6.125 9.96875 -6.125 C 10 -6.457031 9.96875 -6.625 9.902344 -6.820312 C 9.902344 -6.988281 9.902344 -7.121094 9.800781 -7.21875 L 9.667969 -7.21875 C 9.539062 -7.882812 8.777344 -8.082031 8.277344 -8.082031 C 7.648438 -8.046875 7.121094 -8.113281 6.820312 -5.761719 C 6.988281 -4.570312 7.683594 -3.277344 8.3125 -2.882812 C 8.210938 -2.484375 7.78125 -1.722656 7.1875 -1.257812 C 7.019531 -1.160156 6.921875 -0.960938 6.789062 -0.792969 C 6.324219 -0.265625 5.863281 -0.0976562 5.132812 -0.0976562 C 4.800781 -0.0976562 4.503906 -0.164062 4.238281 -0.296875 C 3.941406 -0.398438 3.609375 -1.160156 3.609375 -1.589844 C 3.609375 -1.988281 3.707031 -2.550781 3.839844 -3.113281 L 3.839844 -3.246094 L 3.941406 -3.839844 C 4.007812 -4.4375 4.105469 -5.230469 4.207031 -5.464844 C 4.503906 -6.292969 4.96875 -7.085938 5.464844 -7.75 C 6.324219 -8.742188 8.378906 -9.835938 9.4375 -9.902344 C 9.539062 -9.902344 9.636719 -9.867188 9.734375 -9.867188 C 10.300781 -9.867188 10.464844 -10.132812 10.398438 -10.300781 C 10.429688 -11.65625 9.074219 -12.320312 7.78125 -12.980469 L 7.683594 -13.046875 C 7.351562 -13.179688 7.054688 -13.246094 6.65625 -13.246094 C 5.925781 -13.246094 5.132812 -12.949219 4.535156 -12.550781 L 4.339844 -12.453125 C 3.707031 -12.085938 3.144531 -11.65625 2.648438 -11.09375 L 2.648438 -11.125 C 1.457031 -9.933594 0.265625 -7.949219 0.164062 -6.292969 C 0.0664062 -5.597656 -0.0664062 -3.808594 -0.03125 -3.078125 C 0.0976562 -1.359375 1.125 -0.0976562 2.648438 0.628906 C 2.816406 0.664062 3.078125 0.730469 3.277344 0.730469 L 4.207031 1.160156 L 4.570312 1.160156 C 5.035156 1.160156 5.429688 1.125 5.863281 0.960938 C 6.292969 0.894531 6.523438 0.730469 6.820312 0.496094 C 6.921875 0.398438 7.054688 0.332031 7.1875 0.230469 C 7.617188 0 8.210938 -0.496094 8.378906 -0.859375 C 8.378906 -0.859375 8.378906 -0.925781 8.410156 -0.960938 C 8.511719 -1.292969 8.839844 -1.390625 8.90625 -1.523438 Z M 8.378906 -6.65625 C 8.511719 -6.65625 8.644531 -6.558594 8.710938 -6.523438 C 8.90625 -6.324219 9.074219 -5.992188 9.105469 -5.761719 L 9.273438 -5.035156 C 9.273438 -5 9.238281 -4.96875 9.238281 -4.933594 C 9.238281 -4.800781 9.105469 -4.703125 9.074219 -4.535156 L 8.777344 -3.742188 L 8.34375 -4.207031 L 8.34375 -4.4375 C 8.015625 -5.398438 8.113281 -5.730469 8.144531 -5.925781 C 8.179688 -6.058594 8.246094 -6.226562 8.210938 -6.324219 C 8.246094 -6.457031 8.277344 -6.558594 8.277344 -6.589844 C 8.34375 -6.65625 8.378906 -6.6875 8.378906 -6.65625 Z M 8.378906 -6.65625 "/></g></g></g></svg>