<svg xmlns="http://www.w3.org/2000/svg" xmlns:xlink="http://www.w3.org/1999/xlink" width="1920" zoomAndPan="magnify" viewBox="0 0 1440 809.999993" height="1080" preserveAspectRatio="xMidYMid meet" version="1.0"><defs><clipPath id="aa887f4e92"><path d="M 366 16.601562 L 665 16.601562 L 665 456 L 366 456 Z M 366 16.601562 " clip-rule="nonzero"/></clipPath><clipPath id="e0b0643920"><path d="M 713 361 L 1012 361 L 1012 793.601562 L 713 793.601562 Z M 713 361 " clip-rule="nonzero"/></clipPath></defs><path fill="#545454" d="M 371.621094 336.378906 L 308.183594 336.378906 L 308.183594 124.058594 L 340.550781 124.058594 C 344.433594 219.859375 331.488281 196.558594 356.085938 248.34375 C 372.917969 280.710938 372.917969 270.351562 371.621094 336.378906 Z M 371.621094 336.378906 " fill-opacity="1" fill-rule="nonzero"/><path fill="#545454" d="M 611.132812 719.59375 L 611.132812 790.800781 L 397.515625 790.800781 L 397.515625 749.371094 C 484.257812 748.078125 497.203125 753.257812 517.917969 744.195312 L 564.527344 722.183594 C 574.882812 718.300781 581.355469 720.890625 611.132812 719.59375 Z M 611.132812 719.59375 " fill-opacity="1" fill-rule="nonzero"/><g clip-path="url(#aa887f4e92)"><path fill="#545454" d="M 380.683594 236.691406 C 359.972656 193.96875 369.035156 222.449219 367.738281 90.394531 C 367.738281 76.15625 378.097656 70.976562 387.160156 70.976562 C 396.222656 70.976562 406.578125 76.15625 406.578125 90.394531 L 406.578125 124.058594 C 406.578125 131.824219 411.757812 137.003906 419.523438 137.003906 C 427.292969 137.003906 432.472656 131.824219 432.472656 124.058594 L 432.472656 80.039062 C 432.472656 65.796875 442.828125 60.621094 451.890625 60.621094 C 457.070312 60.621094 462.25 61.914062 466.132812 65.796875 C 470.015625 69.683594 471.3125 73.566406 471.3125 80.039062 L 471.3125 124.058594 C 471.3125 131.824219 476.488281 137.003906 484.257812 137.003906 C 492.023438 137.003906 497.203125 131.824219 497.203125 124.058594 L 497.203125 68.386719 C 497.203125 58.03125 506.265625 48.96875 516.625 48.96875 L 517.917969 48.96875 C 521.800781 48.96875 536.042969 52.851562 536.042969 68.386719 L 536.042969 124.058594 C 536.042969 131.824219 541.222656 137.003906 548.988281 137.003906 C 556.757812 137.003906 561.9375 131.824219 561.9375 124.058594 L 561.9375 36.019531 C 561.9375 25.664062 571 16.601562 581.355469 16.601562 L 582.652344 16.601562 C 586.535156 17.894531 600.777344 20.484375 600.777344 36.019531 L 600.777344 159.011719 C 600.777344 175.84375 626.667969 175.84375 626.667969 159.011719 L 626.667969 89.101562 C 638.320312 94.28125 649.972656 103.34375 657.742188 116.289062 C 657.742188 116.289062 657.742188 117.582031 657.742188 117.582031 C 660.328125 122.761719 662.917969 127.941406 664.214844 134.414062 C 664.214844 149.949219 664.214844 161.601562 664.214844 171.960938 C 665.507812 195.261719 664.214844 204.324219 656.445312 213.386719 C 635.730469 241.871094 611.132812 254.816406 611.132812 288.476562 L 611.132812 455.488281 L 580.0625 455.488281 C 564.527344 455.488281 558.050781 447.71875 521.800781 416.648438 C 497.203125 395.933594 473.898438 404.996094 424.703125 402.40625 C 416.9375 402.40625 403.988281 407.585938 396.222656 411.46875 C 396.222656 254.816406 403.988281 284.59375 380.683594 236.691406 Z M 380.683594 236.691406 " fill-opacity="1" fill-rule="nonzero"/></g><path fill="#545454" d="M 688.8125 679.460938 C 690.105469 684.640625 691.402344 689.820312 692.695312 693.703125 C 582.652344 694.996094 572.292969 689.820312 552.875 698.882812 C 464.835938 739.015625 538.632812 718.300781 383.273438 723.480469 C 367.738281 723.480469 365.148438 710.53125 363.855469 705.355469 L 363.855469 704.058594 C 363.855469 693.703125 372.917969 684.640625 383.273438 684.640625 L 416.9375 684.640625 C 424.703125 684.640625 429.882812 678.167969 429.882812 671.695312 C 429.882812 665.21875 424.703125 658.746094 416.9375 658.746094 L 371.621094 658.746094 C 361.265625 658.746094 352.203125 649.683594 352.203125 639.328125 C 352.203125 628.96875 361.265625 619.90625 371.621094 619.90625 L 415.640625 619.90625 C 423.410156 619.90625 428.585938 614.730469 428.585938 606.960938 C 428.585938 599.191406 423.410156 594.015625 415.640625 594.015625 L 359.972656 594.015625 C 349.613281 594.015625 340.550781 584.953125 340.550781 574.59375 C 340.550781 564.238281 349.613281 555.175781 359.972656 555.175781 L 415.640625 555.175781 C 423.410156 555.175781 428.585938 549.996094 428.585938 542.230469 C 428.585938 535.753906 423.410156 529.28125 415.640625 529.28125 L 327.605469 529.28125 C 317.246094 529.28125 308.183594 520.21875 308.183594 509.863281 L 308.183594 508.566406 C 308.183594 504.683594 312.070312 490.441406 327.605469 490.441406 L 450.597656 490.441406 C 458.363281 490.441406 463.542969 485.265625 463.542969 477.496094 C 463.542969 469.726562 458.363281 464.550781 450.597656 464.550781 L 380.683594 464.550781 C 388.453125 447.71875 402.695312 430.890625 426 425.710938 C 440.238281 425.710938 453.1875 425.710938 463.542969 425.710938 C 486.847656 424.414062 495.910156 425.710938 504.972656 433.476562 C 511.445312 438.65625 516.625 442.539062 520.507812 446.425781 C 545.105469 468.433594 556.757812 477.496094 578.765625 477.496094 L 740.597656 477.496094 L 740.597656 518.925781 C 740.597656 549.996094 687.515625 570.710938 687.515625 614.730469 L 687.515625 676.871094 C 688.8125 678.167969 688.8125 679.460938 688.8125 679.460938 Z M 688.8125 679.460938 " fill-opacity="1" fill-rule="nonzero"/><path fill="#545454" d="M 767.785156 98.164062 L 767.785156 29.546875 L 980.109375 29.546875 L 980.109375 67.09375 C 877.832031 70.976562 902.429688 58.03125 850.644531 82.628906 C 811.804688 102.046875 828.632812 98.164062 767.785156 98.164062 Z M 767.785156 98.164062 " fill-opacity="1" fill-rule="nonzero"/><g clip-path="url(#e0b0643920)"><path fill="#545454" d="M 1011.179688 719.59375 C 1011.179688 733.835938 1000.820312 739.015625 991.757812 739.015625 C 982.695312 739.015625 972.339844 733.835938 972.339844 719.59375 L 972.339844 685.933594 C 972.339844 679.460938 967.160156 672.988281 959.394531 672.988281 C 952.921875 672.988281 946.445312 679.460938 946.445312 685.933594 L 946.445312 731.246094 C 946.445312 741.605469 937.382812 750.667969 927.027344 750.667969 L 925.734375 750.667969 C 921.847656 749.371094 907.609375 746.78125 907.609375 731.246094 L 907.609375 685.933594 C 907.609375 679.460938 901.132812 672.988281 894.660156 672.988281 C 886.894531 672.988281 881.714844 679.460938 881.714844 685.933594 L 881.714844 741.605469 C 881.714844 751.960938 872.652344 761.023438 862.292969 761.023438 C 851.9375 761.023438 842.875 751.960938 842.875 741.605469 L 842.875 685.933594 C 842.875 679.460938 836.402344 672.988281 829.929688 672.988281 C 823.457031 672.988281 816.980469 679.460938 816.980469 685.933594 L 816.980469 773.96875 C 816.980469 784.328125 807.917969 793.390625 797.5625 793.390625 C 787.207031 793.390625 778.144531 784.328125 778.144531 773.96875 L 778.144531 650.980469 C 778.144531 644.503906 771.667969 638.03125 765.195312 638.03125 C 758.722656 638.03125 752.25 644.503906 752.25 650.980469 L 752.25 720.890625 C 735.417969 713.121094 718.589844 698.882812 713.410156 675.578125 L 713.410156 617.316406 C 713.410156 586.246094 766.492188 565.53125 766.492188 521.515625 L 766.492188 362.273438 C 841.582031 360.976562 814.394531 360.976562 867.472656 401.113281 C 892.070312 421.828125 916.667969 412.765625 964.570312 415.351562 C 968.457031 415.351562 976.222656 412.765625 980.109375 411.46875 C 980.109375 433.476562 980.109375 451.601562 980.109375 467.140625 C 980.109375 468.433594 980.109375 468.433594 980.109375 468.433594 C 980.109375 525.398438 977.519531 531.871094 985.285156 548.703125 C 1020.242188 623.792969 1008.589844 574.59375 1011.179688 719.59375 Z M 1011.179688 719.59375 " fill-opacity="1" fill-rule="nonzero"/></g><path fill="#545454" d="M 675.867188 230.21875 C 691.402344 212.09375 690.105469 195.261719 690.105469 170.664062 C 690.105469 160.308594 688.8125 148.65625 690.105469 133.121094 C 690.105469 131.824219 690.105469 130.53125 690.105469 130.53125 C 690.105469 127.941406 688.8125 125.351562 688.8125 124.058594 C 716 124.058594 738.007812 124.058594 754.839844 124.058594 C 756.132812 124.058594 756.132812 124.058594 756.132812 124.058594 C 832.519531 125.351562 822.160156 126.648438 862.292969 107.226562 C 905.019531 86.511719 875.242188 95.574219 1008.589844 94.28125 C 1018.945312 94.28125 1028.007812 103.34375 1028.007812 113.699219 C 1028.007812 124.058594 1018.945312 133.121094 1008.589844 133.121094 L 974.929688 133.121094 C 968.457031 133.121094 961.984375 138.296875 961.984375 146.066406 C 961.984375 152.539062 968.457031 159.011719 974.929688 159.011719 L 1018.945312 159.011719 C 1029.304688 159.011719 1038.367188 168.074219 1038.367188 178.433594 C 1038.367188 188.789062 1029.304688 197.851562 1018.945312 197.851562 L 973.632812 197.851562 C 967.160156 197.851562 960.6875 204.324219 960.6875 210.796875 C 960.6875 218.566406 967.160156 223.746094 973.632812 223.746094 L 1029.304688 223.746094 C 1039.660156 223.746094 1048.722656 232.808594 1048.722656 243.164062 C 1048.722656 253.523438 1039.660156 262.585938 1029.304688 262.585938 L 973.632812 262.585938 C 967.160156 262.585938 960.6875 269.058594 960.6875 275.53125 C 960.6875 282.003906 967.160156 288.476562 973.632812 288.476562 L 1061.671875 288.476562 C 1072.027344 288.476562 1081.089844 297.539062 1081.089844 307.898438 C 1081.089844 318.253906 1072.027344 327.316406 1061.671875 327.316406 L 938.679688 327.316406 C 932.207031 327.316406 925.734375 332.496094 925.734375 340.261719 C 925.734375 346.738281 932.207031 353.210938 938.679688 353.210938 L 1008.589844 353.210938 C 1000.820312 370.039062 986.582031 386.871094 963.277344 392.050781 C 947.742188 390.753906 936.089844 392.050781 925.734375 392.050781 C 876.535156 393.34375 894.660156 386.871094 846.757812 353.210938 C 820.867188 331.199219 809.214844 341.558594 634.4375 338.96875 C 635.730469 297.539062 629.257812 283.300781 642.203125 269.058594 Z M 675.867188 230.21875 " fill-opacity="1" fill-rule="nonzero"/><path fill="#545454" d="M 1006 481.378906 L 1081.089844 481.378906 L 1081.089844 693.703125 L 1035.777344 693.703125 C 1031.894531 575.890625 1048.722656 621.203125 1008.589844 538.34375 C 1004.707031 527.988281 1006 521.515625 1006 481.378906 Z M 1006 481.378906 " fill-opacity="1" fill-rule="nonzero"/></svg>